<?xml version="1.0" encoding="UTF-8"?>
<!DOCTYPE svg PUBLIC "-//W3C//DTD SVG 1.1//EN" "http://www.w3.org/Graphics/SVG/1.1/DTD/svg11.dtd">
<svg xmlns="http://www.w3.org/2000/svg" xmlns:xlink="http://www.w3.org/1999/xlink" version="1.1" width="141px" height="173px" viewBox="-0.5 -0.5 141 173"><defs><clipPath id="mx-clip-4-31-132-26-0"><rect x="4" y="31" width="132" height="26"/></clipPath><clipPath id="mx-clip-4-148-132-26-0"><rect x="4" y="148" width="132" height="26"/></clipPath></defs><g><path d="M 69.43 117 L 68.43 71.1" fill="none" stroke="#000000" stroke-miterlimit="10" pointer-events="stroke"/><path d="M 68.06 54.11 L 76.93 70.92 L 59.94 71.29 Z" fill="none" stroke="#000000" stroke-miterlimit="10" pointer-events="all"/><path d="M 0 26 L 0 0 L 140 0 L 140 26" fill="none" stroke="#000000" stroke-miterlimit="10" pointer-events="all"/><path d="M 0 26 L 0 52 L 140 52 L 140 26" fill="none" stroke="#000000" stroke-miterlimit="10" pointer-events="none"/><path d="M 0 26 L 140 26" fill="none" stroke="#000000" stroke-miterlimit="10" pointer-events="none"/><g fill="#000000" font-family="Helvetica" pointer-events="none" text-anchor="middle" font-size="12px"><text x="69.5" y="17.5">Robot</text></g><g fill="#000000" font-family="Helvetica" pointer-events="none" clip-path="url(#mx-clip-4-31-132-26-0)" font-size="12px"><text x="5.5" y="43.5">+ greet()</text></g><path d="M 0 143 L 0 117 L 140 117 L 140 143" fill="none" stroke="#000000" stroke-miterlimit="10" pointer-events="none"/><path d="M 0 143 L 0 169 L 140 169 L 140 143" fill="none" stroke="#000000" stroke-miterlimit="10" pointer-events="none"/><path d="M 0 143 L 140 143" fill="none" stroke="#000000" stroke-miterlimit="10" pointer-events="none"/><g fill="#000000" font-family="Helvetica" pointer-events="none" text-anchor="middle" font-size="12px"><text x="69.5" y="134.5">Android</text></g><g fill="#000000" font-family="Helvetica" pointer-events="none" clip-path="url(#mx-clip-4-148-132-26-0)" font-size="12px"><text x="5.5" y="160.5">+ greet()</text></g></g></svg>