<?xml version="1.0" encoding="UTF-8"?>
<!DOCTYPE svg PUBLIC "-//W3C//DTD SVG 1.1//EN" "http://www.w3.org/Graphics/SVG/1.1/DTD/svg11.dtd">
<svg xmlns="http://www.w3.org/2000/svg" xmlns:xlink="http://www.w3.org/1999/xlink" version="1.1" width="233px" height="298px" viewBox="-0.5 -0.5 233 298"><defs><clipPath id="mx-clip-4-31-224-26-0"><rect x="4" y="31" width="224" height="26"/></clipPath><clipPath id="mx-clip-4-65-224-68-0"><rect x="4" y="65" width="224" height="68"/></clipPath><clipPath id="mx-clip-4-221-224-26-0"><rect x="4" y="221" width="224" height="26"/></clipPath><clipPath id="mx-clip-4-255-224-44-0"><rect x="4" y="255" width="224" height="44"/></clipPath></defs><g><path d="M 0 26 L 0 0 L 232 0 L 232 26" fill="none" stroke="#000000" stroke-miterlimit="10" pointer-events="all"/><path d="M 0 26 L 0 128 L 232 128 L 232 26" fill="none" stroke="#000000" stroke-miterlimit="10" pointer-events="none"/><path d="M 0 26 L 232 26" fill="none" stroke="#000000" stroke-miterlimit="10" pointer-events="none"/><g fill="#000000" font-family="Helvetica" font-weight="bold" pointer-events="none" text-anchor="middle" font-size="12px"><text x="115.5" y="17.5">BankAccount</text></g><g fill="#000000" font-family="Helvetica" pointer-events="none" clip-path="url(#mx-clip-4-31-224-26-0)" font-size="12px"><text x="5.5" y="43.5">- $balance</text></g><path d="M 0 56 L 232 56" fill="none" stroke="#000000" stroke-miterlimit="10" pointer-events="none"/><g fill="#000000" font-family="Helvetica" pointer-events="none" clip-path="url(#mx-clip-4-65-224-68-0)" font-size="12px"><text x="5.5" y="77.5">+ __construct( $amount )</text><text x="5.5" y="91.5">+ getBalance()</text><text x="5.5" y="105.5">+ deposit( $amount )</text><text x="5.5" y="119.5">+ withdraw( $amount )</text></g><path d="M 0 216 L 0 190 L 232 190 L 232 216" fill="none" stroke="#000000" stroke-miterlimit="10" pointer-events="none"/><path d="M 0 216 L 0 294 L 232 294 L 232 216" fill="none" stroke="#000000" stroke-miterlimit="10" pointer-events="none"/><path d="M 0 216 L 232 216" fill="none" stroke="#000000" stroke-miterlimit="10" pointer-events="none"/><g fill="#000000" font-family="Helvetica" font-weight="bold" pointer-events="none" text-anchor="middle" font-size="12px"><text x="115.5" y="207.5">CheckingAccount</text></g><g fill="#000000" font-family="Helvetica" pointer-events="none" clip-path="url(#mx-clip-4-221-224-26-0)" font-size="12px"><text x="5.5" y="233.5">- $minBalance</text></g><path d="M 0 246 L 232 246" fill="none" stroke="#000000" stroke-miterlimit="10" pointer-events="none"/><g fill="#000000" font-family="Helvetica" pointer-events="none" clip-path="url(#mx-clip-4-255-224-44-0)" font-size="12px"><text x="5.5" y="267.5">+ __construct( $amount, $minBalance )</text><text x="5.5" y="281.5">+ withdraw( $amount ) </text></g><path d="M 116 190 L 115.67 145.1" fill="none" stroke="#000000" stroke-miterlimit="10" pointer-events="none"/><path d="M 115.54 128.1 L 124.17 145.03 L 107.17 145.16 Z" fill="none" stroke="#000000" stroke-miterlimit="10" pointer-events="none"/></g></svg>