<?xml version="1.0" encoding="utf-8"?><svg id="Layer_1" data-name="Layer 1" xmlns="http://www.w3.org/2000/svg" viewBox="0 0 377.63 159"><defs><style>.cls-1{fill:#7952b3;}.cls-2{fill:gray;}.cls-3{fill:#fff;}</style></defs><title>phptutorial</title><path class="cls-1" d="M235.3,46.83A19.33,19.33,0,0,1,228.75,62q-6.85,6.1-18.54,6.11h-6.77V89.77H189.25v-63h22.23Q235.3,26.75,235.3,46.83Zm-14.94.53q0-9.72-11.34-9.71h-5.58V57.29H209Q220.36,57.29,220.36,47.36Z"/><path class="cls-1" d="M305.77,89.77H291.54V64.1H265.43V89.77H251.24v-63h14.19V51.89h26.11V26.75h14.23Z"/><path class="cls-1" d="M373,46.83A19.33,19.33,0,0,1,366.44,62q-6.85,6.1-18.54,6.11h-6.77V89.77H326.94v-63h22.23Q373,26.75,373,46.83Zm-14.94.53q0-9.72-11.34-9.71h-5.58V57.29h5.58Q358,57.29,358.05,47.36Z"/><path class="cls-2" d="M207.62,111.18h-7.18v20.59h-5.7V111.18h-7.15v-4.62h20Z"/><path class="cls-2" d="M234.27,120.85q0,11.35-10.59,11.36-10.26,0-10.26-11.09V106.56h5.69v14.63q0,6.11,4.79,6.11c3.12,0,4.69-2,4.69-5.9V106.56h5.68Z"/><path class="cls-2" d="M260.15,111.18H253v20.59h-5.69V111.18h-7.16v-4.62h20Z"/><path class="cls-2" d="M288,119a13.29,13.29,0,0,1-3.47,9.6,11.9,11.9,0,0,1-9,3.62,11.74,11.74,0,0,1-8.77-3.48,12.63,12.63,0,0,1-3.46-9.23,13.6,13.6,0,0,1,3.39-9.6,12,12,0,0,1,9.25-3.76,11.51,11.51,0,0,1,8.71,3.51A13,13,0,0,1,288,119Zm-6,.31a9.72,9.72,0,0,0-1.73-6.15,5.38,5.38,0,0,0-4.51-2.12,5.69,5.69,0,0,0-4.82,2.33,9.48,9.48,0,0,0-1.69,5.84,9,9,0,0,0,1.87,6.06,5.64,5.64,0,0,0,4.5,2,5.75,5.75,0,0,0,4.55-2A9,9,0,0,0,282.05,119.3Z"/><path class="cls-2" d="M314.26,131.77h-6.52l-2.55-6.49q-1.26-3.16-3.39-3.16h-1.23v9.65h-5.68V106.56h9q9.18,0,9.18,6.86a6.75,6.75,0,0,1-1.57,4.51,7.91,7.91,0,0,1-4.13,2.43v.07q2.22.7,3.6,3.88Zm-7.17-17.65c0-2.2-1.32-3.31-4-3.31h-2.56v7H303a4.09,4.09,0,0,0,3-1.11A3.51,3.51,0,0,0,307.09,114.12Z"/><path class="cls-2" d="M326.17,131.77h-5.68V106.56h5.68Z"/><path class="cls-2" d="M356.77,131.77h-6.19l-1.79-5.61h-9l-1.77,5.61H331.9l9.17-25.21h6.73Zm-9.28-10-2.71-8.47a10.55,10.55,0,0,1-.42-2.27h-.14a10.34,10.34,0,0,1-.44,2.2L341,121.8Z"/><path class="cls-2" d="M377.63,131.77h-15V106.56h5.67v20.6h9.34Z"/><rect class="cls-1" width="159" height="159" rx="15"/><path class="cls-3" d="M117.64,64.19q0,12.36-8.73,20.16-9.15,8.15-24.73,8.14h-9v29H56.23v-84H85.88Q117.64,37.41,117.64,64.19Zm-19.92.7q0-12.95-15.12-13H75.16v26.2H82.6Q97.72,78.14,97.72,64.89Z"/></svg>