<?xml version="1.0" encoding="utf-8"?><svg id="Layer_1" data-name="Layer 1" xmlns="http://www.w3.org/2000/svg" viewBox="0 0 377.63 159"><defs><style>.cls-1{fill:#c7c7c7;}.cls-2{fill:#7952b3;}.cls-3{fill:#fff;}</style></defs><title>phptutorial-dark</title><path class="cls-1" d="M346.49,267.33a19.33,19.33,0,0,1-6.55,15.12q-6.85,6.1-18.54,6.11h-6.77v21.71h-14.2v-63h22.24Q346.49,247.25,346.49,267.33Zm-14.94.53q0-9.72-11.34-9.71h-5.58v19.64h5.58Q331.55,277.79,331.55,267.86Z" transform="translate(-111.19 -220.5)"/><path class="cls-1" d="M417,310.27H402.72V284.6h-26.1v25.67h-14.2v-63h14.2v25.14h26.1V247.25H417Z" transform="translate(-111.19 -220.5)"/><path class="cls-1" d="M484.18,267.33a19.33,19.33,0,0,1-6.55,15.12q-6.86,6.1-18.54,6.11h-6.77v21.71h-14.2v-63h22.24Q484.18,247.25,484.18,267.33Zm-14.94.53q0-9.72-11.34-9.71h-5.58v19.64h5.58Q469.24,277.79,469.24,267.86Z" transform="translate(-111.19 -220.5)"/><path class="cls-1" d="M318.81,331.68h-7.19v20.59h-5.69V331.68h-7.16v-4.62h20Z" transform="translate(-111.19 -220.5)"/><path class="cls-1" d="M345.45,341.35q0,11.36-10.58,11.36-10.26,0-10.26-11.09V327.06h5.69v14.63q0,6.1,4.78,6.11t4.7-5.9V327.06h5.67Z" transform="translate(-111.19 -220.5)"/><path class="cls-1" d="M371.34,331.68h-7.19v20.59h-5.7V331.68H351.3v-4.62h20Z" transform="translate(-111.19 -220.5)"/><path class="cls-1" d="M399.21,339.49a13.33,13.33,0,0,1-3.47,9.6,11.92,11.92,0,0,1-9,3.62,11.73,11.73,0,0,1-8.77-3.48,12.64,12.64,0,0,1-3.47-9.23,13.56,13.56,0,0,1,3.4-9.6,11.93,11.93,0,0,1,9.24-3.76,11.48,11.48,0,0,1,8.71,3.51A13,13,0,0,1,399.21,339.49Zm-6,.31a9.72,9.72,0,0,0-1.72-6.15,5.4,5.4,0,0,0-4.52-2.12,5.67,5.67,0,0,0-4.81,2.33,9.41,9.41,0,0,0-1.69,5.84,9.07,9.07,0,0,0,1.86,6.06,5.64,5.64,0,0,0,4.5,2,5.75,5.75,0,0,0,4.56-2A9,9,0,0,0,393.23,339.8Z" transform="translate(-111.19 -220.5)"/><path class="cls-1" d="M425.45,352.27h-6.52l-2.55-6.49q-1.28-3.16-3.4-3.16h-1.23v9.65h-5.67V327.06h9q9.17,0,9.17,6.86a6.74,6.74,0,0,1-1.56,4.51,8,8,0,0,1-4.13,2.43v.07q2.2.7,3.6,3.88Zm-7.17-17.65c0-2.2-1.32-3.31-4-3.31h-2.57v7h2.46a4.09,4.09,0,0,0,3-1.11A3.55,3.55,0,0,0,418.28,334.62Z" transform="translate(-111.19 -220.5)"/><path class="cls-1" d="M437.36,352.27h-5.68V327.06h5.68Z" transform="translate(-111.19 -220.5)"/><path class="cls-1" d="M468,352.27h-6.19l-1.8-5.61h-9l-1.78,5.61h-6.15l9.18-25.21H459Zm-9.29-10-2.7-8.47a11.17,11.17,0,0,1-.43-2.27h-.14a9.75,9.75,0,0,1-.44,2.2l-2.74,8.54Z" transform="translate(-111.19 -220.5)"/><path class="cls-1" d="M488.81,352.27h-15V327.06h5.68v20.6h9.33Z" transform="translate(-111.19 -220.5)"/><rect class="cls-2" width="159" height="159" rx="15"/><path class="cls-3" d="M228.83,284.69q0,12.36-8.74,20.16Q211,313,195.37,313h-9v28.95H167.42v-84h29.65Q228.83,257.91,228.83,284.69Zm-19.93.7q0-12.94-15.11-12.95h-7.45v26.2h7.45Q208.9,298.64,208.9,285.39Z" transform="translate(-111.19 -220.5)"/></svg>